<svg xmlns="http://www.w3.org/2000/svg" viewBox="0 0 444.17 178.92"><defs><style>.a{fill:#445c66;}.b{fill:#3c5056;}.c{fill:none;stroke:#ed7474;stroke-miterlimit:10;stroke-width:30px;}.d{fill:#bc6868;}</style></defs><title>404</title><path class="a" d="M478.08,38.54V217.46H427.92V80.92l-22.26,44.26h11v38.89H346.92L399.76,38.54Z" transform="translate(-33.92 -38.54)"/><polygon class="b" points="393.5 24.38 362.74 86.46 372.27 86.46 393.5 43.31 393.5 24.38"/><polygon class="b" points="438.17 0 438.17 171.92 394.01 171.92 394.01 178.92 444.17 178.92 444.17 0 438.17 0"/><polygon class="b" points="376.74 118.54 315.95 118.54 313 125.54 382.74 125.54 382.74 86.64 376.74 86.64 376.74 118.54"/><path class="a" d="M165.08,38.54V217.46H114.92V80.92L92.66,125.18h11v38.89H33.92L86.76,38.54Z" transform="translate(-33.92 -38.54)"/><polygon class="b" points="80.5 24.38 49.74 86.46 59.27 86.46 80.5 43.31 80.5 24.38"/><polygon class="b" points="125.17 0 125.17 171.92 81.01 171.92 81.01 178.92 131.17 178.92 131.17 0 125.17 0"/><polygon class="b" points="63.74 118.54 2.95 118.54 0 125.54 69.74 125.54 69.74 86.64 63.74 86.64 63.74 118.54"/><circle class="c" cx="226.01" cy="88.97" r="63.5"/><line class="c" x1="182.51" y1="42.47" x2="269.51" y2="135.47"/><path class="d" d="M308.15,65.39c-.79-.62-1.6-1.2-2.41-1.78a78.48,78.48,0,0,1-96.4,123.72c.76.64,1.53,1.29,2.32,1.9a78.5,78.5,0,1,0,96.5-123.84Z" transform="translate(-33.92 -38.54)"/></svg>