<svg xmlns="http://www.w3.org/2000/svg" xmlns:xlink="http://www.w3.org/1999/xlink" viewBox="0 0 1600 900"> <defs> <style> .cls-1 { fill: #f5b93c; } .cls-2 { fill: url(#g1); } .cls-3 { fill: url(#g2); } .cls-4 { fill: url(#g3); } .cls-5 { fill: url(#g4); } </style> <linearGradient id="g1" x1="801" y1="1" x2="801" y2="374" gradientUnits="userSpaceOnUse"> <stop offset="0" stop-color="#f3b33b"/> <stop offset="1" stop-color="#f4af3d"/> </linearGradient> <linearGradient id="g2" x1="801" y1="205.73" x2="801" y2="623" gradientUnits="userSpaceOnUse"> <stop offset="0" stop-color="#f4ad3d"/> <stop offset="1" stop-color="#f19940"/> </linearGradient> <linearGradient id="g3" x1="801" y1="387.49" x2="801" y2="825" gradientUnits="userSpaceOnUse"> <stop offset="0" stop-color="#f29b3e"/> <stop offset="1" stop-color="#ed8842"/> </linearGradient> <linearGradient id="g4" x1="801" y1="624.08" x2="801" y2="901" gradientUnits="userSpaceOnUse"> <stop offset="0" stop-color="#ec7a41"/> <stop offset="1" stop-color="#ec8741"/> </linearGradient> </defs> <title>cool-play-back</title> <rect class="cls-1" x="350.5" y="-350.5" width="900" height="1600" transform="translate(1249.5 -350.5) rotate(90)"/> <path class="cls-2" d="M1,374H1601V31.88c-16.32-10.56-34.28-21.36-52.59-30.88H1392.27c-43.4,25.65-91.62,24.84-135.32,0H1049.21c-1.92,3-3.67,6-5.21,9-26,50-40,86-108,94-66.55,7.83-91-71.49-130.4-103H595.88c-30.36,45-51,119.74-111.88,133C406,151,407-9,357,64S259,36,183,50s-58,96-125,71c-18.79-7-38.44-8.67-57-7.44Z" transform="translate(0)"/> <path class="cls-3" d="M1,623H1601V239.74c-74.78-31.9-186.36-58.69-279,5.26-54,57-81,44-133,43s-131-109-197-76-199,18-229,34-66,60-129,54-170-78-246-72S254,266,175,330C129.7,366.7,55.81,368.87,1,364Z" transform="translate(0)"/> <path class="cls-4" d="M1,825H1601V421.91c-12-1.06-26.22,4-43,19.09-70,63-204,144-215,64s-99,7-136-60-114,96-159,85-17-110-87.42-134.91S745,409,718,474s-38-53-78-22S571,563,500,571s-165-55-223-60-120,73-176,73c-30.12,0-69.77-21.11-100-40.63Z" transform="translate(0)"/> <path class="cls-5" d="M1519,713c-57,18-45,78-89,72s-171-161-211.43-160.92S1157,786,1091,725s-195,61-235,58S782,617,715,630,637,782,595,767s-68-98-119-66-36,108-72,109-93-70-117-72-61,35-87,36S106,674,74,677c-17.52,1.64-48.52,13.48-73,23.85V901H1601V731.79C1573.42,716.46,1542.81,705.48,1519,713Z" transform="translate(0)"/> </svg>