<svg style="position: absolute; width: 0; height: 0; overflow: hidden;" version="1.1" xmlns="http://www.w3.org/2000/svg">
<defs>
<symbol id="none" viewBox="0 0 27 32">
<title>上传选择</title>
<path fill="#bdc3c7" style="fill: var(--color1, #bdc3c7)" d="M10.28 12.307l2.287-2.287c0.767-0.767 0.76-0.767 1.527 0l2.287 2.287c0.42 0.42 0.327 0.507-0.167 0.507h-1.133v2.787c0 0.58-0.467 1.047-1.047 1.047h-1.393c-0.573 0-1.047-0.467-1.047-1.047v-2.787h-1.147c-0.447 0-0.587-0.087-0.167-0.507zM17.16 15.947v1.393c0 0.193-0.153 0.347-0.347 0.347h-6.96c-0.193 0-0.347-0.153-0.347-0.347v-1.393h-0.693v1.393c0 0.573 0.467 1.047 1.047 1.047h6.96c0.573 0 1.047-0.467 1.047-1.047v-1.393h-0.707z"></path>
<path fill="#bdc3c7" style="fill: var(--color1, #bdc3c7)" d="M5.267 22.54c-0.073-0.053-0.16-0.1-0.267-0.133 0.113-0.153 0.227-0.38 0.333-0.687 0.087 0.047 0.187 0.073 0.293 0.093-0.173 0.353-0.293 0.593-0.36 0.727zM6.58 19.893h0.847c0.133 0 0.28-0.007 0.44-0.013v0.253c-0.153-0.007-0.293-0.013-0.44-0.013h-0.847v0.387h1.020c-0.007 0.187-0.013 0.373-0.013 0.573 0 0.187 0.007 0.36 0.013 0.52h-2.147c0.007-0.16 0.013-0.333 0.013-0.533 0-0.193-0.007-0.38-0.013-0.56h0.847v-0.673c0-0.14-0.007-0.267-0.013-0.373h0.307c-0.013 0.093-0.013 0.233-0.013 0.433zM7.32 21.36v-0.633h-1.58v0.633h1.58zM5.873 21.92c0.080-0.027 0.16-0.067 0.24-0.12 0.133 0.3 0.213 0.5 0.253 0.593-0.1 0.033-0.193 0.073-0.28 0.12-0.007-0.093-0.080-0.293-0.213-0.593zM6.633 21.907c0.060-0.033 0.14-0.080 0.227-0.133 0.187 0.32 0.293 0.52 0.333 0.607-0.087 0.047-0.173 0.087-0.253 0.133-0.073-0.167-0.173-0.367-0.307-0.607zM8.047 22.393c-0.053 0.027-0.14 0.073-0.267 0.147-0.073-0.167-0.193-0.38-0.36-0.633 0.087-0.047 0.167-0.093 0.227-0.147 0.167 0.247 0.3 0.46 0.4 0.633z"></path>
<path fill="#bdc3c7" style="fill: var(--color1, #bdc3c7)" d="M9.787 20.047v-0.267c-0.007-0.080-0.013-0.173-0.013-0.28h0.28c-0.007 0.107-0.013 0.2-0.013 0.28v0.267h0.687c0.16 0 0.3-0.007 0.427-0.013v0.253c-0.127-0.007-0.267-0.013-0.427-0.013h-0.687v0.56h1.007c0.18 0 0.32-0.007 0.44-0.013v0.24c-0.113-0.007-0.26-0.013-0.44-0.013h-1.007v1.060h0.74v-0.547c0-0.053-0.007-0.133-0.013-0.24h0.293c-0.007 0.113-0.013 0.193-0.013 0.24v0.56c0 0.133 0.007 0.267 0.013 0.4h-0.28v-0.2h-2c0.007-0.107 0.013-0.213 0.013-0.333v-0.413c0-0.033-0.007-0.113-0.013-0.24h0.293c-0.007 0.127-0.013 0.207-0.013 0.24v0.533h0.727v-1.060h-0.953c-0.193 0-0.353 0.007-0.48 0.013v-0.24c0.127 0.007 0.28 0.013 0.467 0.013h0.967v-0.56h-0.673c-0.167 0-0.307 0.007-0.427 0.013v-0.267c0.107 0.007 0.247 0.020 0.427 0.027h0.673z"></path>
<path fill="#bdc3c7" style="fill: var(--color1, #bdc3c7)" d="M13.287 21.933c-0.3 0.060-0.533 0.113-0.687 0.153-0.16 0.040-0.38 0.107-0.66 0.193-0.027-0.080-0.067-0.173-0.12-0.28 0.1-0.007 0.273-0.040 0.533-0.093 0.253-0.053 0.58-0.127 0.967-0.227-0.027 0.073-0.033 0.153-0.033 0.253zM13.433 20.033c0-0.247-0.007-0.447-0.013-0.593 0.113 0.020 0.213 0.027 0.293 0.027-0.020 0.133-0.027 0.32-0.027 0.573h0.493c0.133 0 0.307-0.007 0.533-0.013v0.24c-0.22-0.007-0.4-0.013-0.533-0.013h-0.48c0.007 0.193 0.033 0.413 0.067 0.66s0.087 0.44 0.147 0.573c0.193-0.32 0.333-0.62 0.413-0.9 0.087 0.073 0.18 0.127 0.267 0.16-0.073 0.127-0.153 0.273-0.24 0.447s-0.2 0.36-0.333 0.567c0.133 0.24 0.233 0.387 0.313 0.453 0.073 0.060 0.133 0.053 0.173-0.033s0.067-0.187 0.087-0.3c0.1 0.087 0.187 0.14 0.267 0.16-0.113 0.36-0.26 0.533-0.433 0.52-0.173-0.020-0.367-0.22-0.58-0.593-0.22 0.24-0.493 0.44-0.807 0.607-0.053-0.080-0.113-0.147-0.187-0.2 0.213-0.1 0.393-0.207 0.553-0.333 0.153-0.127 0.26-0.227 0.327-0.307-0.047-0.087-0.1-0.267-0.16-0.533s-0.1-0.58-0.12-0.94h-1.14c-0.16 0-0.313 0.007-0.467 0.013v-0.24c0.153 0.007 0.3 0.013 0.453 0.013h1.133zM13.113 21.033c0 0.187 0.007 0.353 0.013 0.507h-1.073c0.007-0.18 0.013-0.353 0.013-0.533s-0.007-0.32-0.013-0.44h1.073c-0.007 0.113-0.013 0.267-0.013 0.467zM12.873 21.32v-0.547h-0.573v0.547h0.573zM14.44 19.84c-0.053 0.047-0.113 0.1-0.187 0.173-0.060-0.1-0.18-0.227-0.36-0.387 0.073-0.060 0.127-0.12 0.173-0.173 0.207 0.193 0.327 0.32 0.373 0.387z"></path>
<path fill="#bdc3c7" style="fill: var(--color1, #bdc3c7)" d="M15.62 19.453h0.293c-0.020 0.187-0.027 0.407-0.027 0.66 0.113 0 0.233-0.007 0.36-0.013v0.24c-0.133-0.007-0.253-0.013-0.36-0.013v0.593c0.133-0.060 0.24-0.12 0.32-0.173 0 0.080 0.007 0.167 0.027 0.253l-0.347 0.16v1.020c0 0.107-0.040 0.18-0.12 0.22s-0.207 0.067-0.387 0.087c-0.020-0.1-0.060-0.193-0.133-0.293 0.18 0.007 0.287 0 0.327-0.020s0.060-0.073 0.060-0.153v-0.767c-0.167 0.080-0.293 0.14-0.373 0.187-0.033-0.107-0.080-0.193-0.133-0.267 0.16-0.033 0.327-0.087 0.507-0.16v-0.687c-0.187 0-0.333 0.007-0.453 0.013v-0.24c0.107 0.007 0.253 0.013 0.453 0.013 0-0.233-0.007-0.46-0.013-0.66zM16.48 20.687h0.267c-0.007 0.1-0.013 0.207-0.013 0.333l0.4-0.133c0-0.187-0.007-0.373-0.013-0.56h0.267c-0.007 0.153-0.013 0.307-0.013 0.48l0.727-0.213c-0.007 0.080-0.020 0.24-0.033 0.48s-0.033 0.393-0.053 0.46c-0.020 0.067-0.053 0.113-0.1 0.14s-0.147 0.053-0.307 0.080c-0.033-0.1-0.080-0.187-0.133-0.267 0.127 0 0.207-0.007 0.247-0.020s0.067-0.053 0.073-0.113l0.027-0.427-0.453 0.133v0.427c0 0.113 0.007 0.26 0.013 0.44h-0.267c0.007-0.18 0.013-0.32 0.013-0.44v-0.36l-0.4 0.12v0.807c0 0.113 0.060 0.173 0.187 0.173h0.74c0.133 0.007 0.22-0.007 0.26-0.047s0.067-0.133 0.087-0.287c0.1 0.060 0.193 0.1 0.293 0.12-0.060 0.2-0.127 0.327-0.193 0.373s-0.167 0.067-0.3 0.067h-0.98c-0.22 0-0.333-0.093-0.333-0.28v-0.84c-0.107 0.027-0.207 0.060-0.293 0.093l-0.080-0.253c0.127-0.020 0.247-0.047 0.373-0.080 0.007-0.18 0.007-0.32-0.007-0.407zM16.887 19.7c-0.033 0.067-0.067 0.14-0.1 0.22h0.913c0.14 0 0.307-0.007 0.507-0.013v0.267c-0.193-0.007-0.367-0.013-0.52-0.013h-0.98c-0.047 0.113-0.127 0.287-0.253 0.52-0.080-0.047-0.173-0.080-0.28-0.107 0.073-0.073 0.16-0.227 0.273-0.467s0.187-0.467 0.233-0.687c0.127 0.047 0.227 0.073 0.307 0.093-0.033 0.053-0.067 0.12-0.1 0.187z"></path>
<path fill="#bdc3c7" style="fill: var(--color1, #bdc3c7)" d="M19.587 22.14c0.060-0.020 0.1-0.127 0.113-0.313s0.027-0.453 0.033-0.807h-0.48c-0.020 0.327-0.067 0.607-0.147 0.84s-0.2 0.453-0.36 0.653c-0.080-0.073-0.16-0.127-0.24-0.173 0.14-0.153 0.24-0.293 0.3-0.433s0.107-0.3 0.153-0.493c0.047-0.187 0.060-0.547 0.053-1.067-0.133 0-0.28 0.007-0.44 0.013v-0.253c0.16 0.007 0.287 0.013 0.387 0.013h0.713c0.133 0 0.26-0.007 0.387-0.013v0.253c-0.127-0.007-0.253-0.013-0.387-0.013h-0.407v0.453h0.7c-0.020 0.52-0.033 0.873-0.047 1.047-0.013 0.18-0.033 0.3-0.053 0.373s-0.073 0.12-0.147 0.153c-0.073 0.033-0.187 0.053-0.34 0.073-0.020-0.1-0.053-0.193-0.107-0.293 0.147 0.013 0.247 0.007 0.313-0.013zM19.507 19.933c-0.087 0.033-0.173 0.073-0.253 0.12-0.080-0.2-0.167-0.373-0.253-0.507 0.080-0.033 0.16-0.080 0.24-0.133 0.1 0.18 0.187 0.347 0.267 0.52zM20.3 20.793c-0.047 0.080-0.087 0.153-0.12 0.213-0.033-0.060-0.1-0.127-0.2-0.2 0.1-0.113 0.193-0.3 0.293-0.567 0.1-0.26 0.173-0.533 0.227-0.813 0.113 0.053 0.227 0.093 0.333 0.12-0.053 0.073-0.1 0.16-0.147 0.273s-0.087 0.22-0.12 0.327h0.62c0.133 0 0.273-0.007 0.427-0.013v0.253c-0.133-0.007-0.233-0.013-0.307-0.013-0.020 0.3-0.053 0.573-0.107 0.82s-0.127 0.467-0.227 0.66c0.167 0.207 0.4 0.347 0.687 0.44-0.073 0.087-0.12 0.18-0.147 0.267-0.28-0.107-0.52-0.28-0.7-0.533-0.193 0.193-0.44 0.373-0.727 0.533-0.033-0.1-0.1-0.18-0.187-0.24 0.3-0.1 0.553-0.253 0.753-0.48-0.147-0.32-0.267-0.667-0.353-1.047zM20.513 20.58c0.087 0.44 0.187 0.773 0.307 0.993 0.113-0.253 0.193-0.66 0.24-1.207h-0.573l-0.12 0.24 0.147-0.027z"></path>
</symbol>
<symbol id="undefined" viewBox="0 0 27 32">
<title>默认文档</title>
<path fill="#3da6fb" style="fill: var(--color2, #3da6fb)" d="M1.5 31.020c-0.953-0.92-1.5-2.193-1.5-3.52v-23.020c0-1.267 0.507-2.48 1.4-3.373 0.7-0.707 1.653-1.107 2.647-1.107h14.733l7.887 7.9v19.86c0 1.167-0.467 2.293-1.293 3.127l-0.32 0.32c-0.6 0.6-1.413 0.8-2.253 0.793h-18.92c-0.88-0.020-1.733-0.36-2.38-0.98z"></path>
<path fill="#56bcfc" style="fill: var(--color3, #56bcfc)" d="M18.82 0l7.84 7.847h-6.040l-1.72-1.727z"></path>
<path fill="#2f8de4" style="fill: var(--color4, #2f8de4)" d="M20.62 7.847h6.040v4.973z"></path>
<path fill="#fff" style="fill: var(--color5, #fff)" d="M6.307 24.987c-0.7-0.647-1.047-1.487-1.047-2.5 0-1.020 0.347-1.86 1.047-2.5l10.133-9.9c0.567-0.573 1.253-0.853 2.060-0.853s1.493 0.28 2.060 0.847c0.567 0.567 0.847 1.253 0.847 2.060 0 0.753-0.28 1.44-0.847 2.060l-7.587 7.313c-0.433 0.433-0.96 0.647-1.573 0.647-0.593 0-1.127-0.213-1.613-0.647-0.433-0.487-0.64-1.027-0.64-1.613s0.213-1.127 0.647-1.613l5.247-5.087c0.193-0.133 0.347-0.133 0.487 0 0.133 0.193 0.133 0.347 0 0.487l-5.247 5.087c-0.32 0.267-0.487 0.647-0.487 1.127 0 0.487 0.167 0.86 0.487 1.127 0.267 0.32 0.647 0.487 1.127 0.487s0.86-0.167 1.127-0.487l7.587-7.273c0.433-0.487 0.647-1.027 0.647-1.613 0-0.593-0.213-1.127-0.647-1.613-0.487-0.427-1.020-0.647-1.613-0.647s-1.127 0.213-1.613 0.647l-10.14 9.9c-0.567 0.567-0.847 1.253-0.847 2.060s0.28 1.5 0.847 2.060 1.253 0.847 2.060 0.847c0.753 0 1.433-0.28 2.060-0.847l8.033-7.8c0.193-0.133 0.347-0.133 0.487 0 0.133 0.193 0.133 0.347 0 0.487l-8.080 7.753c-0.647 0.7-1.48 1.053-2.507 1.053s-1.847-0.347-2.5-1.053z"></path>
</symbol>
<symbol id="audio" viewBox="0 0 27 32">
<title>声音</title>
<path fill="#3da6fb" style="fill: var(--color2, #3da6fb)" d="M1.5 31.020v0c-0.953-0.92-1.5-2.193-1.5-3.52v-23.020c0-1.267 0.507-2.48 1.4-3.373v0c0.7-0.707 1.653-1.107 2.647-1.107h14.733l7.887 7.9v19.86c0 1.167-0.467 2.293-1.293 3.127l-0.32 0.32c-0.6 0.6-1.413 0.8-2.253 0.793h-18.913c-0.887-0.020-1.74-0.36-2.387-0.98z"></path>
<path fill="#56bcfc" style="fill: var(--color3, #56bcfc)" d="M18.82 0l7.84 7.847h-6.040l-1.72-1.727z"></path>
<path fill="#2f8de4" style="fill: var(--color4, #2f8de4)" d="M20.62 7.847h6.040v4.973z"></path>
<path fill="#fff" style="fill: var(--color5, #fff)" d="M10.747 9.833c-0.447 0-0.867 0.167-1.187 0.507-0.327 0.34-0.487 0.78-0.493 1.227l0.013 2.107v5.707c-0.527-0.393-1.173-0.62-1.873-0.62-1.793 0-3.247 1.487-3.247 3.333 0.013 1.84 1.46 3.333 3.247 3.333 1.793 0 3.233-1.487 3.233-3.333l-0.013-8.42 8.947 0.013v5.713c-0.54-0.393-1.173-0.62-1.873-0.633-1.793 0-3.233 1.5-3.233 3.333 0 1.847 1.453 3.34 3.247 3.34s3.247-1.5 3.233-3.34v-10.52c0-0.447-0.167-0.887-0.493-1.227-0.327-0.327-0.76-0.493-1.187-0.507l-8.32-0.013z"></path>
</symbol>
<symbol id="video" viewBox="0 0 27 32">
<title>视频</title>
<path fill="#3da6fb" style="fill: var(--color2, #3da6fb)" d="M1.5 31.020v0c-0.953-0.92-1.5-2.193-1.5-3.52v-23.020c0-1.267 0.507-2.48 1.4-3.373v0c0.7-0.707 1.653-1.107 2.647-1.107h14.733l7.887 7.9v19.86c0 1.167-0.467 2.293-1.293 3.127l-0.32 0.32c-0.6 0.6-1.413 0.8-2.253 0.793h-18.92c-0.88-0.020-1.733-0.36-2.38-0.98z"></path>
<path fill="#56bcfc" style="fill: var(--color3, #56bcfc)" d="M18.82 0l7.84 7.847h-6.040l-1.72-1.727z"></path>
<path fill="#2f8de4" style="fill: var(--color4, #2f8de4)" d="M20.62 7.847h6.040v4.973z"></path>
<path fill="#fff" style="fill: var(--color5, #fff)" d="M14.253 15.66c1.607 0 2.907-1.307 2.907-2.92s-1.3-2.92-2.907-2.92-2.907 1.307-2.907 2.92 1.3 2.92 2.907 2.92zM8.427 15.64c1.22 0 2.213-0.993 2.213-2.22s-0.993-2.22-2.213-2.22-2.213 0.993-2.213 2.22 0.993 2.22 2.213 2.22zM19.973 18.28l-1.86 1.080c-0.013-1.553-1.287-2.813-2.833-2.813h-7.313c-1.56 0-2.833 1.28-2.833 2.84v3.22c0 1.56 1.273 2.84 2.833 2.84h7.307c1.547 0 2.82-1.267 2.833-2.813l1.86 1.080c0.693 0.4 1.56-0.1 1.56-0.907v-3.627c0.007-0.8-0.86-1.3-1.553-0.9z"></path>
</symbol>
<symbol id="image" viewBox="0 0 27 32">
<title>图片</title>
<path fill="#3da6fb" style="fill: var(--color2, #3da6fb)" d="M1.5 31.020v0c-0.953-0.92-1.5-2.193-1.5-3.52v-23.020c0-1.267 0.507-2.48 1.4-3.373v0c0.7-0.707 1.653-1.107 2.647-1.107h14.733l7.887 7.9v19.86c0 1.167-0.467 2.293-1.293 3.127l-0.32 0.32c-0.6 0.6-1.413 0.8-2.253 0.793h-18.92c-0.88-0.020-1.733-0.36-2.38-0.98z"></path>
<path fill="#56bcfc" style="fill: var(--color3, #56bcfc)" d="M18.82 0l7.84 7.847h-6.040l-1.72-1.727z"></path>
<path fill="#2f8de4" style="fill: var(--color4, #2f8de4)" d="M20.62 7.847h6.040v4.973z"></path>
<path fill="#fff" style="fill: var(--color5, #fff)" d="M20.68 11.333v0 12.607h-14.693v-12.607h14.693zM20.68 10.28h-14.693c-0.58 0-1.047 0.473-1.047 1.053v12.607c0 0.58 0.473 1.053 1.047 1.053h14.693c0.58 0 1.047-0.473 1.047-1.053v-12.607c0-0.58-0.473-1.053-1.047-1.053v0z"></path>
<path fill="#fff" style="fill: var(--color5, #fff)" d="M18.58 13.96c0 0.873-0.7 1.573-1.573 1.573s-1.573-0.7-1.573-1.573 0.7-1.573 1.573-1.573c0.873-0.007 1.573 0.7 1.573 1.573z"></path>
<path fill="#fff" style="fill: var(--color5, #fff)" d="M19.627 22.887h-12.587v-2.1l3.673-6.3 4.2 5.253h1.047l3.673-3.153v6.3z"></path>
</symbol>
<symbol id="apk" viewBox="0 0 27 32">
<title>安卓</title>
<path fill="#3da6fb" style="fill: var(--color2, #3da6fb)" d="M1.5 31.020v0c-0.953-0.92-1.5-2.193-1.5-3.52v-23.020c0-1.267 0.507-2.48 1.4-3.373v0c0.7-0.707 1.653-1.107 2.647-1.107h14.733l7.887 7.9v19.86c0 1.167-0.467 2.293-1.293 3.127l-0.32 0.32c-0.6 0.6-1.413 0.8-2.253 0.793h-18.92c-0.88-0.020-1.733-0.36-2.38-0.98z"></path>
<path fill="#56bcfc" style="fill: var(--color3, #56bcfc)" d="M18.82 0l7.84 7.847h-6.040l-1.72-1.727z"></path>
<path fill="#2f8de4" style="fill: var(--color4, #2f8de4)" d="M20.62 7.847h6.040v4.973z"></path>
<path fill="#fff" style="fill: var(--color5, #fff)" d="M8.913 21.7c0 0.573 0.447 1.033 1 1.033h0.72c-0.027 0.087-0.040 0.18-0.040 0.267v2.060c0 0.54 0.427 0.98 0.947 0.98 0.527 0 0.947-0.44 0.947-0.98v-2.060c0-0.093-0.013-0.187-0.040-0.267h1.753c-0.027 0.087-0.040 0.18-0.040 0.267v2.060c0 0.54 0.427 0.98 0.947 0.98 0.527 0 0.947-0.44 0.947-0.98v-2.060c0-0.093-0.013-0.187-0.040-0.267h0.72c0.553 0 1-0.46 1-1.033v-7.16h-8.82v7.16zM7.333 14.54c-0.527 0-0.947 0.44-0.947 0.98v4.173c0 0.54 0.427 0.98 0.947 0.98 0.527 0 0.947-0.44 0.947-0.98v-4.173c0-0.54-0.42-0.98-0.947-0.98zM19.333 14.54c-0.527 0-0.947 0.44-0.947 0.98v4.173c0 0.54 0.427 0.98 0.947 0.98 0.527 0 0.947-0.44 0.947-0.98v-4.173c0-0.54-0.427-0.98-0.947-0.98zM15.507 10.633l0.18-0.273 0.18-0.267 0.393-0.613c0.047-0.073 0.027-0.18-0.047-0.22-0.073-0.053-0.173-0.033-0.213 0.047l-0.42 0.647-0.36 0.547c-0.573-0.227-1.207-0.353-1.873-0.353s-1.307 0.127-1.873 0.353l-0.36-0.547-0.42-0.647c-0.047-0.073-0.147-0.093-0.213-0.047-0.073 0.053-0.093 0.153-0.047 0.22l0.393 0.613 0.18 0.267 0.18 0.273c-1.34 0.647-2.247 1.86-2.247 3.253h8.84c-0.027-1.387-0.933-2.607-2.273-3.253zM11.44 12.593c-0.26 0-0.473-0.213-0.473-0.487s0.207-0.487 0.473-0.487 0.473 0.213 0.473 0.487-0.213 0.487-0.473 0.487zM15.227 12.593c-0.26 0-0.473-0.213-0.473-0.487s0.207-0.487 0.473-0.487 0.473 0.213 0.473 0.487-0.207 0.487-0.473 0.487z"></path>
</symbol>
<symbol id="ipa" viewBox="0 0 27 32">
<title>苹果</title>
<path fill="#3da6fb" style="fill: var(--color2, #3da6fb)" d="M1.5 31.020v0c-0.953-0.92-1.5-2.193-1.5-3.52v-23.020c0-1.267 0.507-2.48 1.4-3.373v0c0.7-0.707 1.653-1.107 2.647-1.107h14.733l7.887 7.9v19.86c0 1.167-0.467 2.293-1.293 3.127l-0.32 0.32c-0.6 0.6-1.413 0.8-2.253 0.793h-18.92c-0.88-0.020-1.733-0.36-2.38-0.98z"></path>
<path fill="#56bcfc" style="fill: var(--color3, #56bcfc)" d="M18.82 0l7.84 7.847h-6.040l-1.72-1.727z"></path>
<path fill="#2f8de4" style="fill: var(--color4, #2f8de4)" d="M20.62 7.847h6.040v4.973z"></path>
<path fill="#fff" style="fill: var(--color5, #fff)" d="M20.173 21.547c-0.020 0.067-0.353 1.213-1.16 2.393-0.7 1.027-1.427 2.047-2.573 2.067-1.127 0.020-1.487-0.667-2.773-0.667s-1.693 0.653-2.753 0.687c-1.1 0.047-1.947-1.113-2.653-2.133-1.44-2.080-2.553-5.893-1.060-8.453 0.733-1.28 2.047-2.093 3.473-2.113 1.080-0.020 2.107 0.727 2.76 0.727 0.673 0 1.913-0.907 3.227-0.773 0.553 0.027 2.087 0.227 3.067 1.66-0.080 0.053-1.833 1.087-1.82 3.207 0.040 2.56 2.247 3.393 2.267 3.4zM15.807 11.927c0.593-0.72 0.98-1.713 0.88-2.7-0.847 0.033-1.867 0.56-2.48 1.273-0.54 0.627-1.013 1.627-0.887 2.607 0.933 0.067 1.893-0.487 2.487-1.18z"></path>
</symbol>
<symbol id="package" viewBox="0 0 27 32">
<title>资源包</title>
<path fill="#3da6fb" style="fill: var(--color2, #3da6fb)" d="M1.5 31.020v0c-0.953-0.92-1.5-2.193-1.5-3.52v-23.020c0-1.267 0.507-2.48 1.4-3.373v0c0.7-0.707 1.653-1.107 2.647-1.107h14.733l7.887 7.9v19.86c0 1.167-0.467 2.293-1.293 3.127l-0.32 0.32c-0.6 0.6-1.413 0.8-2.253 0.793h-18.92c-0.88-0.020-1.733-0.36-2.38-0.98z"></path>
<path fill="#56bcfc" style="fill: var(--color3, #56bcfc)" d="M18.82 0l7.84 7.847h-6.040l-1.72-1.727z"></path>
<path fill="#2f8de4" style="fill: var(--color4, #2f8de4)" d="M20.62 7.847h6.040v4.973z"></path>
<path fill="#fff" style="fill: var(--color5, #fff)" d="M12.973 9.32l-8.033 3.18v8.68l9.687 4.76 7.1-4.76v-8.68l-8.753-3.18zM15.007 16.087l-7.853-3.073 2.32-0.913 7.527 2.927-1.993 1.060zM14.527 24.447l-8.293-4.080v-6.993l0.040-0.020 8.353 3.26v7.76l-0.1 0.073zM18.507 14.22l-7.28-2.82 1.76-0.693 7.233 2.607-1.713 0.907z"></path>
<path fill="#fff" style="fill: var(--color5, #fff)" d="M12.68 18.873l-0.96-1.9-0.98 1.253 0.653 0.213v1.96l0.647 0.24v-1.973l0.64 0.207z"></path>
<path fill="#fff" style="fill: var(--color5, #fff)" d="M10.113 17.94l-0.98-1.847-0.96 1.22 0.64 0.213v1.773l0.647 0.24v-1.8l0.653 0.2z"></path>
<path fill="#fff" style="fill: var(--color5, #fff)" d="M8.173 19.553v0.793l4.527 2.133v-0.793l-4.527-2.133z"></path>
</symbol>
<symbol id="zip" viewBox="0 0 27 32">
<title>压缩包</title>
<path fill="#3da6fb" style="fill: var(--color2, #3da6fb)" d="M1.5 31.020v0c-0.953-0.92-1.5-2.193-1.5-3.52v-23.020c0-1.267 0.507-2.48 1.4-3.373v0c0.7-0.707 1.653-1.107 2.647-1.107h14.733l7.887 7.9v19.86c0 1.167-0.467 2.293-1.293 3.127l-0.32 0.32c-0.6 0.6-1.413 0.8-2.253 0.793h-18.92c-0.88-0.020-1.733-0.36-2.38-0.98z"></path>
<path fill="#56bcfc" style="fill: var(--color3, #56bcfc)" d="M18.82 0l7.84 7.847h-6.040l-1.72-1.727z"></path>
<path fill="#2f8de4" style="fill: var(--color4, #2f8de4)" d="M20.62 7.847h6.040v4.973z"></path>
<path fill="#fff" style="fill: var(--color5, #fff)" d="M19.773 12.18c-0.113-0.1-0.227-0.213-0.36-0.333-0.38-0.34-0.747-0.687-1.107-1.020-0.040-0.033-0.040-0.033-0.087-0.080-0.48-0.427-0.873-0.78-1.167-1.033-0.173-0.147-0.307-0.247-0.4-0.327-0.067-0.053-0.12-0.087-0.18-0.113-0.067-0.033-0.127-0.053-0.213-0.053-0.233 0.007-0.42 0.193-0.42 0.427v3.773h3.773l-0.42-0.42v12.6l0.42-0.42h-10.907c-0.693 0-1.26-0.567-1.26-1.26v-14.24l-0.42 0.42h7.547c0.233 0 0.42-0.187 0.42-0.42s-0.187-0.42-0.42-0.42h-7.953v14.68c0 1.153 0.94 2.1 2.1 2.1h11.32v-13.427h-3.773l0.42 0.42v-3.353c0 0.227-0.187 0.4-0.4 0.413-0.080 0-0.12-0.007-0.16-0.033-0.007 0 0.020 0.007 0.040 0.027 0.080 0.060 0.2 0.153 0.353 0.28 0.28 0.24 0.667 0.593 1.14 1.007 0.040 0.033 0.040 0.033 0.087 0.080 0.353 0.32 0.727 0.66 1.1 1.007 0.133 0.12 0.247 0.233 0.36 0.333 0.067 0.060 0.113 0.1 0.133 0.127 0.173 0.16 0.433 0.153 0.6-0.020 0.16-0.173 0.153-0.433-0.020-0.6-0.033-0.013-0.080-0.053-0.147-0.12zM6.627 16.813h-1.68v7.133h16.767v-7.133h-15.087c0-0.013 0 0 0 0zM9.567 22.013h2.553v0.66h-3.547v-0.54l2.467-3.567h-2.447v-0.667h3.453v0.52c-0.007 0-2.48 3.593-2.48 3.593zM13.7 22.687h-0.82v-4.78h0.82c0 0 0 4.78 0 4.78zM15.553 20.913v1.773h-0.833v-4.78h1.827c0.54 0 0.96 0.147 1.267 0.42s0.473 0.647 0.473 1.1c0 0.473-0.153 0.833-0.46 1.087-0.307 0.26-0.74 0.387-1.293 0.387l-0.98 0.013zM15.553 20.233h1c0.293 0 0.52-0.067 0.667-0.213 0.153-0.147 0.233-0.333 0.233-0.607 0-0.26-0.080-0.46-0.233-0.627-0.16-0.153-0.38-0.233-0.64-0.233h-1.013l-0.013 1.68z"></path>
</symbol>
<symbol id="word" viewBox="0 0 27 32">
<title>word</title>
<path fill="#3da6fb" style="fill: var(--color2, #3da6fb)" d="M1.5 31.020v0c-0.953-0.92-1.5-2.193-1.5-3.52v-23.020c0-1.267 0.507-2.48 1.4-3.373v0c0.7-0.707 1.653-1.107 2.647-1.107h14.733l7.887 7.9v19.86c0 1.167-0.467 2.293-1.293 3.127l-0.32 0.32c-0.6 0.6-1.413 0.8-2.253 0.793h-18.92c-0.88-0.020-1.733-0.36-2.38-0.98z"></path>
<path fill="#56bcfc" style="fill: var(--color3, #56bcfc)" d="M18.82 0l7.84 7.847h-6.040l-1.72-1.727z"></path>
<path fill="#2f8de4" style="fill: var(--color4, #2f8de4)" d="M20.62 7.847h6.040v4.973z"></path>
<path fill="#fff" style="fill: var(--color5, #fff)" d="M15.193 11.407v1.093h5.080v0.707h-5.080v1.14h5.080v0.707h-5.080v1.127h5.080v0.707h-5.080v1.12h5.080v0.727h-5.080v1.12h5.080v0.707h-5.080v1.12h5.080v0.707h-5.080v1.467h6.533v-12.447h-6.533z"></path>
<path fill="#fff" style="fill: var(--color5, #fff)" d="M4.94 11.020v13.233l9.467 1.787v-16.807l-9.467 1.787zM11.793 20.5h-1.387l-0.887-3.913-1.113 3.913h-0.953l-1.367-5.773h1.367l0.547 3.6 0.907-3.96h1.427l0.773 4.327 0.82-4.327h1.367l-1.5 6.133z"></path>
</symbol>
<symbol id="ppt" viewBox="0 0 27 32">
<title>ppt</title>
<path fill="#3da6fb" style="fill: var(--color2, #3da6fb)" d="M1.5 31.020v0c-0.953-0.92-1.5-2.193-1.5-3.52v-23.020c0-1.267 0.507-2.48 1.4-3.373v0c0.7-0.707 1.653-1.107 2.647-1.107h14.733l7.887 7.9v19.86c0 1.167-0.467 2.293-1.293 3.127l-0.32 0.32c-0.6 0.6-1.413 0.8-2.253 0.793h-18.92c-0.88-0.020-1.733-0.36-2.38-0.98z"></path>
<path fill="#56bcfc" style="fill: var(--color3, #56bcfc)" d="M18.82 0l7.84 7.847h-6.040l-1.72-1.727z"></path>
<path fill="#2f8de4" style="fill: var(--color4, #2f8de4)" d="M20.62 7.847h6.040v4.973z"></path>
<path fill="#fff" style="fill: var(--color5, #fff)" d="M4.94 24.053l9.847 1.753v-16.347l-9.847 1.753v12.84zM7.767 14.193h2.133c0.467 0 0.813 0.16 1.040 0.473s0.347 0.767 0.347 1.353c0 0.6-0.127 1.073-0.38 1.407-0.247 0.333-0.633 0.507-1.153 0.507h-0.7v2.2h-1.287v-5.94zM9.887 16.547c0.1-0.127 0.153-0.28 0.153-0.473 0-0.187-0.047-0.347-0.133-0.473-0.087-0.133-0.247-0.2-0.493-0.2h-0.367v1.327h0.313c0.247 0 0.427-0.060 0.527-0.18zM15.167 15.107h3.28v2.527h-3.28v0.973h3.28v0.78h-3.28v0.973h3.28v0.78h-3.28v0.973h3.28v0.773h-3.28v0.973h4.633v-9.92h-4.633v1.167zM17.487 11.407l2.893 1.947v6.807h1.353v-8.753h-4.247z"></path>
</symbol>
</defs>
</svg>
